<?xml version="1.0" encoding="utf-8"?>
<!-- Generator: Adobe Illustrator 18.1.1, SVG Export Plug-In . SVG Version: 6.00 Build 0)  -->
<svg version="1.1" id="Layer_5" xmlns="http://www.w3.org/2000/svg" xmlns:xlink="http://www.w3.org/1999/xlink" x="0px" y="0px"
	 viewBox="0 0 100 100" enable-background="new 0 0 100 100" xml:space="preserve">
<g>
	<path fill="#00303E" d="M50,0C22.4,0,0,22.4,0,50s22.4,50,50,50s50-22.4,50-50S77.6,0,50,0z M35.2,19.2c2.6,0,4.7,2.1,4.7,4.7
		c0,2.6-2.1,4.7-4.7,4.7c-2.6,0-4.7-2.1-4.7-4.7C30.5,21.3,32.6,19.2,35.2,19.2z M46.2,56.5c-1,0.2-2.1-0.4-2.3-1.5l-3-15.9L42,49.9
		l-1.7,25.8l1.8,0.7V78h-6.3l-0.3-23.2h-0.6L34.7,78h-6.3v-1.6l1.8-0.7l-1.7-25.8l1-10.8h-0.4l-4.6,13.4c0.9,0.7,1.5,1.6,1.6,2.8
		c0,0.5-0.3,1-0.8,1c-0.5,0.1-1-0.3-1-0.8c0-0.5-0.2-0.9-0.5-1.2c-0.5,0.6-1.3,0.9-2,0.7c-0.5-0.1-0.9-0.4-1.1-0.9
		c-0.4,0.4-0.7,0.9-0.7,1.6c0,0.3-0.1,0.5-0.3,0.7v19H20l0.3,2.6h-2.5l0.3-2.6h0.3v-19c-0.2-0.2-0.3-0.4-0.3-0.7
		c0-1.7,1-3.1,2.5-3.7l4.6-16.1c1.3-4.7,3.8-6,7.6-6h4.8c3.8,0,6.6,2.4,7.3,7.1l2.8,17.2C47.9,55.2,47.2,56.3,46.2,56.5z M69.3,23.2
		c2.6,0,4.7,2.1,4.7,4.6s-2.1,4.6-4.7,4.6c-2.6,0-4.6-2.1-4.6-4.6S66.7,23.2,69.3,23.2z M81.1,53.6c-1,0.4-2.1-0.2-2.4-1.2
		l-4.4-10.1l-0.7,4.4c1.8,5.3,3.6,17.9,3.6,17.9h-3.5l-0.9,11.2l0.5,0.6V78h-3.6V64.6h-0.2h0H69V78h-3.6v-1.5l0.5-0.6l-0.9-11.2
		h-3.5c0,0,1.8-12.6,3.6-17.9l-0.7-4.4l-3.7,8.3c0.4,0.1,0.7,0.4,0.7,0.9c0,0.5-0.4,0.9-0.9,0.9h-0.6c-0.4,1-1.5,1.5-2.4,1.2
		c-0.5-0.2-0.8-0.5-1-1c-0.7,0.4-1.2,1.1-1.2,1.9c0,0.3-0.1,0.5-0.3,0.7v1.5c0,0.7,0.5,1.2,1.4,1.9c0.9,0.7,2.1,1.7,2.1,3.3v10.4
		h1.4c1.7,0,3,1.3,3,3v0h0.4l0.3,2.6h-2.5l0.3-2.6h0.4v0c0-1-0.8-1.8-1.8-1.8h-1.4v1.8h0.4L59,78h-2.5l0.3-2.6h0.4v-1.8h-1.7
		c-1,0-1.8,0.8-1.8,1.8v0H54l0.3,2.6h-2.5l0.3-2.6h0.4v0c0-1.7,1.3-3,3-3h1.7V62c0-1.1-0.7-1.7-1.6-2.4c-0.9-0.7-1.9-1.5-1.9-2.8
		v-1.5c-0.2-0.2-0.3-0.4-0.3-0.7c0-1.9,1.3-3.5,3.1-3.9l4.9-12c1.2-3.1,3.3-5.2,6.7-5.2h1.3h0h1.2c3.4,0,5.5,2.1,6.7,5.2l5.1,12.4
		C82.6,52.1,82.1,53.2,81.1,53.6z"/>
</g>
</svg>
